<svg width="176" height="27" viewBox="0 0 176 27" fill="none" xmlns="http://www.w3.org/2000/svg">
	<circle cx="5" cy="13.5" r="5" fill="#4B6BDC" />
	<path d="M19.8 21H19.3V21.5H19.8V21ZM19.8 4.2V3.7H19.3V4.2H19.8ZM31.704 6.672L31.3329 7.0071L31.3363 7.01084L31.704 6.672ZM31.704 18.552L31.3347 18.215L31.3345 18.2151L31.704 18.552ZM22.56 18.528H22.06V19.028H22.56V18.528ZM29.616 16.8L29.2397 16.4707L29.2371 16.4737L29.616 16.8ZM29.616 8.4L29.2371 8.72627L29.2397 8.72925L29.616 8.4ZM22.56 6.672V6.172H22.06V6.672H22.56ZM20.3 21V4.2H19.3V21H20.3ZM19.8 4.7H25.488V3.7H19.8V4.7ZM25.488 4.7C28.0328 4.7 29.9582 5.4846 31.3329 7.00708L32.0751 6.33692C30.4738 4.5634 28.2552 3.7 25.488 3.7V4.7ZM31.3363 7.01084C32.7511 8.54601 33.46 10.3993 33.46 12.6H34.46C34.46 10.1607 33.6649 8.06199 32.0717 6.33316L31.3363 7.01084ZM33.46 12.6C33.46 14.8007 32.751 16.663 31.3347 18.215L32.0733 18.889C33.665 17.145 34.46 15.0392 34.46 12.6H33.46ZM31.3345 18.2151C29.9603 19.7224 28.0343 20.5 25.488 20.5V21.5C28.2537 21.5 30.4717 20.6456 32.0735 18.8889L31.3345 18.2151ZM25.488 20.5H19.8V21.5H25.488V20.5ZM22.56 19.028H25.248V18.028H22.56V19.028ZM25.248 19.028C27.2723 19.028 28.8839 18.4164 29.9949 17.1263L29.2371 16.4737C28.3641 17.4876 27.0637 18.028 25.248 18.028V19.028ZM29.9923 17.1293C31.0864 15.8788 31.628 14.3591 31.628 12.6H30.628C30.628 14.1369 30.1616 15.4172 29.2397 16.4707L29.9923 17.1293ZM31.628 12.6C31.628 10.8409 31.0864 9.32118 29.9923 8.07075L29.2397 8.72925C30.1616 9.78281 30.628 11.0631 30.628 12.6H31.628ZM29.9949 8.07374C28.8839 6.78358 27.2723 6.172 25.248 6.172V7.172C27.0637 7.172 28.3641 7.71242 29.2371 8.72626L29.9949 8.07374ZM25.248 6.172H22.56V7.172H25.248V6.172ZM22.06 6.672V18.528H23.06V6.672H22.06ZM48.6786 21L48.2001 21.1452L48.3077 21.5H48.6786V21ZM48.0306 18.864L48.509 18.7188L48.4014 18.364H48.0306V18.864ZM41.5746 18.864V18.364H41.2037L41.0961 18.7188L41.5746 18.864ZM40.9266 21V21.5H41.2974L41.405 21.1452L40.9266 21ZM37.9266 21L37.4528 20.8403L37.2303 21.5H37.9266V21ZM43.5906 4.2V3.7H43.2315L43.1168 4.04026L43.5906 4.2ZM46.0146 4.2L46.4884 4.04026L46.3736 3.7H46.0146V4.2ZM51.6786 21V21.5H52.3748L52.1524 20.8403L51.6786 21ZM42.2946 16.392L41.8156 16.2485L41.6227 16.892H42.2946V16.392ZM47.2866 16.392V16.892H47.9584L47.7655 16.2485L47.2866 16.392ZM44.7906 8.064L45.2695 7.92045L44.7906 6.32241L44.3116 7.92045L44.7906 8.064ZM49.157 20.8548L48.509 18.7188L47.5521 19.0092L48.2001 21.1452L49.157 20.8548ZM48.0306 18.364H41.5746V19.364H48.0306V18.364ZM41.0961 18.7188L40.4481 20.8548L41.405 21.1452L42.053 19.0092L41.0961 18.7188ZM40.9266 20.5H37.9266V21.5H40.9266V20.5ZM38.4004 21.1597L44.0644 4.35974L43.1168 4.04026L37.4528 20.8403L38.4004 21.1597ZM43.5906 4.7H46.0146V3.7H43.5906V4.7ZM45.5408 4.35974L51.2048 21.1597L52.1524 20.8403L46.4884 4.04026L45.5408 4.35974ZM51.6786 20.5H48.6786V21.5H51.6786V20.5ZM42.2946 16.892H47.2866V15.892H42.2946V16.892ZM47.7655 16.2485L45.2695 7.92045L44.3116 8.20755L46.8076 16.5355L47.7655 16.2485ZM44.3116 7.92045L41.8156 16.2485L42.7735 16.5355L45.2695 8.20755L44.3116 7.92045ZM68.6355 13.488L68.2205 13.2091L68.2174 13.2138L68.6355 13.488ZM66.0435 15.576L65.8649 15.109L65.3035 15.3236L65.6168 15.8366L66.0435 15.576ZM69.3555 21V21.5H70.2467L69.7822 20.7394L69.3555 21ZM66.2115 21L65.7846 21.2602L65.9307 21.5H66.2115V21ZM63.1395 15.96L63.5664 15.6998L63.4203 15.46H63.1395V15.96ZM60.4275 15.96V15.46H59.9275V15.96H60.4275ZM60.4275 21V21.5H60.9275V21H60.4275ZM57.6675 21H57.1675V21.5H57.6675V21ZM57.6675 4.2V3.7H57.1675V4.2H57.6675ZM67.9875 5.856L67.6288 6.20432L67.6314 6.20696L67.9875 5.856ZM60.4275 6.672V6.172H59.9275V6.672H60.4275ZM60.4275 13.488H59.9275V13.988H60.4275V13.488ZM65.9475 12.528L65.5808 12.1881L65.5805 12.1885L65.9475 12.528ZM65.9475 7.656L65.5762 7.99109L65.585 8.00037L65.9475 7.656ZM69.1195 10.08C69.1195 11.2872 68.8155 12.3239 68.2205 13.2091L69.0505 13.7669C69.7675 12.7001 70.1195 11.4648 70.1195 10.08H69.1195ZM68.2174 13.2138C67.6349 14.1022 66.8546 14.7306 65.8649 15.109L66.2221 16.043C67.4084 15.5894 68.3561 14.8258 69.0536 13.7622L68.2174 13.2138ZM65.6168 15.8366L68.9288 21.2606L69.7822 20.7394L66.4702 15.3154L65.6168 15.8366ZM69.3555 20.5H66.2115V21.5H69.3555V20.5ZM66.6384 20.7398L63.5664 15.6998L62.7126 16.2202L65.7846 21.2602L66.6384 20.7398ZM63.1395 15.46H60.4275V16.46H63.1395V15.46ZM59.9275 15.96V21H60.9275V15.96H59.9275ZM60.4275 20.5H57.6675V21.5H60.4275V20.5ZM58.1675 21V4.2H57.1675V21H58.1675ZM57.6675 4.7H63.8595V3.7H57.6675V4.7ZM63.8595 4.7C65.4181 4.7 66.6601 5.2067 67.6288 6.20432L68.3462 5.50768C67.1709 4.2973 65.6609 3.7 63.8595 3.7V4.7ZM67.6314 6.20696C68.6171 7.20723 69.1195 8.48431 69.1195 10.08H70.1195C70.1195 8.25168 69.5339 6.71277 68.3436 5.50504L67.6314 6.20696ZM59.9275 6.672V13.488H60.9275V6.672H59.9275ZM60.4275 13.988H63.6915V12.988H60.4275V13.988ZM63.6915 13.988C64.7356 13.988 65.6231 13.615 66.3145 12.8675L65.5805 12.1885C65.0879 12.721 64.4714 12.988 63.6915 12.988V13.988ZM66.3142 12.8679C67.016 12.1107 67.3595 11.1695 67.3595 10.08H66.3595C66.3595 10.9425 66.095 11.6333 65.5808 12.1881L66.3142 12.8679ZM67.3595 10.08C67.3595 8.99056 67.0159 8.05471 66.31 7.31162L65.585 8.00037C66.0951 8.53729 66.3595 9.21744 66.3595 10.08H67.3595ZM66.3187 7.32102C65.6285 6.55619 64.7398 6.172 63.6915 6.172V7.172C64.4672 7.172 65.0825 7.44381 65.5763 7.99098L66.3187 7.32102ZM63.6915 6.172H60.4275V7.172H63.6915V6.172ZM88.6131 4.2L88.9898 4.52871L89.7128 3.7H88.6131V4.2ZM81.3891 12.48L81.0123 12.1513L80.7296 12.4753L81.0077 12.8034L81.3891 12.48ZM88.6131 21V21.5H89.6925L88.9944 20.6766L88.6131 21ZM85.1091 21L84.7239 21.3189L84.8739 21.5H85.1091V21ZM78.8691 13.464L79.2542 13.1451L78.3691 12.0762V13.464H78.8691ZM78.8691 21V21.5H79.3691V21H78.8691ZM76.1091 21H75.6091V21.5H76.1091V21ZM76.1091 4.2V3.7H75.6091V4.2H76.1091ZM78.8691 4.2H79.3691V3.7H78.8691V4.2ZM78.8691 11.784H78.3691V13.1745L79.2546 12.1024L78.8691 11.784ZM85.1331 4.2V3.7H84.8975L84.7476 3.88159L85.1331 4.2ZM88.2363 3.87129L81.0123 12.1513L81.7658 12.8087L88.9898 4.52871L88.2363 3.87129ZM81.0077 12.8034L88.2317 21.3234L88.9944 20.6766L81.7704 12.1566L81.0077 12.8034ZM88.6131 20.5H85.1091V21.5H88.6131V20.5ZM85.4942 20.6811L79.2542 13.1451L78.4839 13.7829L84.7239 21.3189L85.4942 20.6811ZM78.3691 13.464V21H79.3691V13.464H78.3691ZM78.8691 20.5H76.1091V21.5H78.8691V20.5ZM76.6091 21V4.2H75.6091V21H76.6091ZM76.1091 4.7H78.8691V3.7H76.1091V4.7ZM78.3691 4.2V11.784H79.3691V4.2H78.3691ZM79.2546 12.1024L85.5186 4.51841L84.7476 3.88159L78.4836 11.4656L79.2546 12.1024ZM85.1331 4.7H88.6131V3.7H85.1331V4.7ZM94.5038 21H94.0038V21.5H94.5038V21ZM94.5038 4.2V3.7H94.0038V4.2H94.5038ZM97.2637 4.2H97.7637V3.7H97.2637V4.2ZM97.2637 18.408H96.7637V18.908H97.2637V18.408ZM104.008 18.408H104.508V17.908H104.008V18.408ZM104.008 21V21.5H104.508V21H104.008ZM95.0038 21V4.2H94.0038V21H95.0038ZM94.5038 4.7H97.2637V3.7H94.5038V4.7ZM96.7637 4.2V18.408H97.7637V4.2H96.7637ZM97.2637 18.908H104.008V17.908H97.2637V18.908ZM103.508 18.408V21H104.508V18.408H103.508ZM104.008 20.5H94.5038V21.5H104.008V20.5ZM110.602 21H110.102V21.5H110.602V21ZM110.602 4.2V3.7H110.102V4.2H110.602ZM113.362 4.2H113.862V3.7H113.362V4.2ZM113.362 21V21.5H113.862V21H113.362ZM111.102 21V4.2H110.102V21H111.102ZM110.602 4.7H113.362V3.7H110.602V4.7ZM112.862 4.2V21H113.862V4.2H112.862ZM113.362 20.5H110.602V21.5H113.362V20.5ZM138.505 12.576H139.005V12.076H138.505V12.576ZM138.505 15.048V15.548H139.005V15.048H138.505ZM136.657 15.048V14.548H136.254L136.169 14.9416L136.657 15.048ZM133.873 19.728L134.184 20.1193L134.185 20.1189L133.873 19.728ZM122.185 18.96L121.825 19.3065L121.826 19.3082L122.185 18.96ZM119.833 12.72L119.333 12.7168V12.7168L119.833 12.72ZM122.185 6.384L121.815 6.048L121.813 6.0499L122.185 6.384ZM133.753 5.352L133.447 5.74744L133.449 5.74918L133.753 5.352ZM136.009 9.24V9.74H136.558L136.507 9.19381L136.009 9.24ZM132.985 9.24L132.497 9.34658L132.582 9.74H132.985V9.24ZM131.569 7.104L131.27 7.50506L131.276 7.50911L131.569 7.104ZM124.249 8.112L124.632 8.43407L124.634 8.4316L124.249 8.112ZM122.737 12.72L123.237 12.7245L123.237 12.7157L122.737 12.72ZM124.273 17.16L123.897 17.49L123.9 17.4928L124.273 17.16ZM133.753 15.048L134.238 15.1707L134.395 14.548H133.753V15.048ZM130.513 15.048H130.013V15.548H130.513V15.048ZM130.513 12.576V12.076H130.013V12.576H130.513ZM138.005 12.576V15.048H139.005V12.576H138.005ZM138.505 14.548H136.657V15.548H138.505V14.548ZM136.169 14.9416C135.758 16.827 134.885 18.2811 133.561 19.3371L134.185 20.1189C135.709 18.9029 136.692 17.237 137.146 15.1544L136.169 14.9416ZM133.562 19.3367C132.26 20.372 130.578 20.908 128.473 20.908V21.908C130.753 21.908 132.67 21.324 134.184 20.1193L133.562 19.3367ZM128.473 20.908C125.979 20.908 124.02 20.1323 122.544 18.6118L121.826 19.3082C123.519 21.0517 125.752 21.908 128.473 21.908V20.908ZM122.546 18.6135C121.061 17.0692 120.318 15.119 120.333 12.7232L119.333 12.7168C119.316 15.345 120.141 17.5548 121.825 19.3065L122.546 18.6135ZM120.333 12.7232C120.348 10.3395 121.093 8.34804 122.557 6.7181L121.813 6.0499C120.173 7.87595 119.35 10.1085 119.333 12.7168L120.333 12.7232ZM122.555 6.71999C124.01 5.11656 126.04 4.292 128.713 4.292V3.292C125.818 3.292 123.496 4.19544 121.815 6.048L122.555 6.71999ZM128.713 4.292C130.64 4.292 132.206 4.78724 133.447 5.74744L134.059 4.95656C132.612 3.83676 130.819 3.292 128.713 3.292V4.292ZM133.449 5.74918C134.711 6.71369 135.382 7.88769 135.511 9.28619L136.507 9.19381C136.349 7.48831 135.516 6.07031 134.057 4.95482L133.449 5.74918ZM136.009 8.74H132.985V9.74H136.009V8.74ZM133.474 9.13342C133.255 8.12929 132.71 7.31256 131.862 6.69889L131.276 7.50911C131.932 7.98344 132.332 8.59071 132.497 9.34658L133.474 9.13342ZM131.868 6.70298C131.011 6.06519 129.948 5.764 128.713 5.764V6.764C129.783 6.764 130.623 7.02281 131.27 7.50502L131.868 6.70298ZM128.713 5.764C126.648 5.764 125.004 6.42126 123.865 7.7924L124.634 8.4316C125.542 7.33874 126.874 6.764 128.713 6.764V5.764ZM123.867 7.78993C122.753 9.11215 122.22 10.7701 122.237 12.7243L123.237 12.7157C123.222 10.9579 123.697 9.54385 124.632 8.43407L123.867 7.78993ZM122.237 12.7155C122.22 14.5977 122.766 16.2017 123.897 17.49L124.649 16.83C123.7 15.7503 123.222 14.3943 123.237 12.7245L122.237 12.7155ZM123.9 17.4928C125.061 18.7945 126.602 19.436 128.473 19.436V18.436C126.856 18.436 125.597 17.8935 124.646 16.8272L123.9 17.4928ZM128.473 19.436C129.979 19.436 131.248 19.095 132.238 18.3666C133.23 17.6356 133.888 16.553 134.238 15.1707L133.268 14.9253C132.962 16.135 132.412 16.9964 131.645 17.5614C130.874 18.129 129.831 18.436 128.473 18.436V19.436ZM133.753 14.548H130.513V15.548H133.753V14.548ZM131.013 15.048V12.576H130.013V15.048H131.013ZM130.513 13.076H138.505V12.076H130.513V13.076ZM144.625 21H144.125V21.5H144.625V21ZM144.625 4.2V3.7H144.125V4.2H144.625ZM147.385 4.2H147.885V3.7H147.385V4.2ZM147.385 11.424H146.885V11.924H147.385V11.424ZM154.321 11.424V11.924H154.821V11.424H154.321ZM154.321 4.2V3.7H153.821V4.2H154.321ZM157.081 4.2H157.581V3.7H157.081V4.2ZM157.081 21V21.5H157.581V21H157.081ZM154.321 21H153.821V21.5H154.321V21ZM154.321 13.896H154.821V13.396H154.321V13.896ZM147.385 13.896V13.396H146.885V13.896H147.385ZM147.385 21V21.5H147.885V21H147.385ZM145.125 21V4.2H144.125V21H145.125ZM144.625 4.7H147.385V3.7H144.625V4.7ZM146.885 4.2V11.424H147.885V4.2H146.885ZM147.385 11.924H154.321V10.924H147.385V11.924ZM154.821 11.424V4.2H153.821V11.424H154.821ZM154.321 4.7H157.081V3.7H154.321V4.7ZM156.581 4.2V21H157.581V4.2H156.581ZM157.081 20.5H154.321V21.5H157.081V20.5ZM154.821 21V13.896H153.821V21H154.821ZM154.321 13.396H147.385V14.396H154.321V13.396ZM146.885 13.896V21H147.885V13.896H146.885ZM147.385 20.5H144.625V21.5H147.385V20.5ZM167.712 21H167.212V21.5H167.712V21ZM167.712 6.792H168.212V6.292H167.712V6.792ZM162.84 6.792H162.34V7.292H162.84V6.792ZM162.84 4.2V3.7H162.34V4.2H162.84ZM175.368 4.2H175.868V3.7H175.368V4.2ZM175.368 6.792V7.292H175.868V6.792H175.368ZM170.472 6.792V6.292H169.972V6.792H170.472ZM170.472 21V21.5H170.972V21H170.472ZM168.212 21V6.792H167.212V21H168.212ZM167.712 6.292H162.84V7.292H167.712V6.292ZM163.34 6.792V4.2H162.34V6.792H163.34ZM162.84 4.7H175.368V3.7H162.84V4.7ZM174.868 4.2V6.792H175.868V4.2H174.868ZM175.368 6.292H170.472V7.292H175.368V6.292ZM169.972 6.792V21H170.972V6.792H169.972ZM170.472 20.5H167.712V21.5H170.472V20.5Z" fill="#3C3C3C" />
</svg>
